<svg xmlns="http://www.w3.org/2000/svg" xmlns:xlink="http://www.w3.org/1999/xlink" viewBox="0 0 73 53"><defs><filter x="-7%" y="-5.7%" width="121%" height="115.5%" filterUnits="objectBoundingBox" id="a"><feMorphology radius="1" operator="dilate" in="SourceAlpha" result="shadowSpreadOuter1"/><feOffset dx="2" dy="2" in="shadowSpreadOuter1" result="shadowOffsetOuter1"/><feComposite in="shadowOffsetOuter1" in2="SourceAlpha" operator="out" result="shadowOffsetOuter1"/><feColorMatrix values="0 0 0 0 1 0 0 0 0 0.745098039 0 0 0 0 0 0 0 0 1 0" in="shadowOffsetOuter1"/></filter><filter x="-5.7%" y="-5.5%" width="117.7%" height="114.4%" filterUnits="objectBoundingBox" id="c"><feMorphology radius="1" operator="dilate" in="SourceAlpha" result="shadowSpreadOuter1"/><feOffset dx="2" dy="2" in="shadowSpreadOuter1" result="shadowOffsetOuter1"/><feComposite in="shadowOffsetOuter1" in2="SourceAlpha" operator="out" result="shadowOffsetOuter1"/><feColorMatrix values="0 0 0 0 1 0 0 0 0 0.745098039 0 0 0 0 0 0 0 0 1 0" in="shadowOffsetOuter1"/></filter><path d="M267.922 127.745l8.387-2.912c2.011 10.04 3.017 17.615 3.017 22.725 0 7.665-1.104 11.142-4.345 13.93-3.24 2.786-5.346 3.834-7.059 3.834s-7.202 2.045-13.002-3.835c-3.866-3.92-5.061-6.8-3.585-8.64l5.663-2.087c2.176 4.25 4.936 6.376 8.278 6.376 5.014 0 6.364-4.57 6.364-7.93 0-2.241-1.24-9.394-3.718-21.46z" id="b"/><path d="M280.996 127.955c1.465 8.856 2.198 14.52 2.198 16.993 0 2.472.208 9.233.624 20.282l9.074 2.201-1.551-21.232 3.7 5.895h5.812l2.03-8.604c.687 2.65 1.03 4.907 1.03 6.772 0 2.799-1.767 9.21-2.413 9.21-.431 0 3.029 1.475 10.38 4.426-.482-6.245-.482-12.145 0-17.7.725-8.33 2.802-18.696 3.875-21.17.715-1.65 1.433-3.331 2.153-5.043-4.843-.536-8.386-.536-10.63 0-3.364.803-7.802.946-8.521.875-.48-.048-1.124-.34-1.933-.875.487 4.278.73 6.935.73 7.97 0 1.035.4 4.873 1.203 11.514-2.269-3.183-4.224-6.386-5.865-9.608-1.641-3.222-2.392-5.282-2.252-6.18l-9.644 4.274z" id="d"/></defs><g fill="none" fill-rule="evenodd"><g transform="translate(-249 -118)"><use fill="#000" filter="url(#a)" xlink:href="#b"/><use stroke="#000" stroke-width="2" fill="#FFF" xlink:href="#b"/></g><g transform="translate(-249 -118)"><use fill="#000" filter="url(#c)" xlink:href="#d"/><use stroke="#000" stroke-width="2" fill="#FFF" xlink:href="#d"/></g></g></svg>