<svg xmlns="http://www.w3.org/2000/svg" viewBox="0 0 880 880"><defs><linearGradient x1="90.851%" y1="50%" x2="10.391%" y2="50%" id="a"><stop offset="0%"/><stop stop-color="#242424" offset="49.435%"/><stop offset="100%"/></linearGradient><linearGradient x1="100%" y1="50%" x2="0%" y2="50%" id="b"><stop offset="9.149%"/><stop stop-color="#242424" offset="49.435%"/><stop offset="89.609%"/></linearGradient></defs><g fill="none" fill-rule="evenodd"><circle fill="#000" cx="440" cy="440" r="440"/><path d="M440 441.118l196.146 392.293C577.102 862.906 510.489 879.5 440 879.5c-70.489 0-137.102-16.594-196.146-46.09h0L440 441.119z" stroke="#000" fill="url(#a)"/><path d="M440 1.118l196.146 392.293C577.102 422.906 510.489 439.5 440 439.5c-70.489 0-137.102-16.594-196.146-46.09h0L440 1.119z" stroke="#000" fill="url(#b)" transform="matrix(1 0 0 -1 0 440)"/><circle fill="#1C1C1C" cx="440" cy="440" r="177"/><circle stroke="#979797" fill="#FFBE00" cx="440" cy="440" r="141.5"/><circle stroke="#979797" fill="#D8D8D8" cx="440" cy="440" r="13.5"/><circle stroke="#2B2B2B" cx="440" cy="440" r="392.5"/><circle stroke="#2B2B2B" cx="440" cy="440" r="358.5"/><circle stroke="#2B2B2B" cx="440" cy="440" r="324.5"/><circle stroke="#2B2B2B" cx="440" cy="440" r="280.5"/><circle stroke="#2B2B2B" cx="440" cy="440" r="234.5"/></g></svg>